<?xml version="1.0" encoding="utf-8"?>
<!-- Generator: Adobe Illustrator 22.1.0, SVG Export Plug-In . SVG Version: 6.00 Build 0)  -->
<svg version="1.1" id="Layer_1" xmlns="http://www.w3.org/2000/svg" xmlns:xlink="http://www.w3.org/1999/xlink" x="0px" y="0px"
	 viewBox="0 0 20 20" style="enable-background:new 0 0 20 20;" xml:space="preserve">
<style type="text/css">
	.st0{fill:#233974;}
	.st1{fill:#233974;stroke:#233974;stroke-width:0.75;stroke-miterlimit:10;}
</style>
<title>Clock</title>
<rect x="9.5" y="3.5" class="st0" width="1" height="6.5"/>
<rect x="11.2" y="8.9" transform="matrix(0.7071 -0.7071 0.7071 0.7071 -4.6966 11.6278)" class="st0" width="1" height="5.2"/>
<path class="st1" d="M10,19.6c-5.3,0-9.6-4.3-9.6-9.6S4.7,0.4,10,0.4s9.6,4.3,9.6,9.6S15.3,19.6,10,19.6z M10,1.4
	c-4.8,0-8.7,3.9-8.7,8.7s3.9,8.7,8.7,8.7c4.8,0,8.7-3.9,8.7-8.7c0,0,0,0,0,0C18.7,5.2,14.8,1.4,10,1.4z"/>
</svg>
