<svg id="Layer_1" data-name="Layer 1" xmlns="http://www.w3.org/2000/svg" viewBox="0 0 20 20"><defs><style>.cls-1{fill:#233974;}</style></defs><title>Heart</title><path class="cls-1" d="M10,18.89a1.15,1.15,0,0,1-.77-.29L7,16.65H7A42,42,0,0,1,2,12,7.47,7.47,0,0,1,0,7.11,6.24,6.24,0,0,1,1.59,2.85a5.36,5.36,0,0,1,4-1.74A5,5,0,0,1,8.73,2.19,6.2,6.2,0,0,1,10,3.52a6.45,6.45,0,0,1,1.27-1.33,5,5,0,0,1,3.14-1.08,5.33,5.33,0,0,1,4,1.74A6.2,6.2,0,0,1,20,7.11,7.47,7.47,0,0,1,18,12a41.41,41.41,0,0,1-5,4.65l-2.27,2A1.18,1.18,0,0,1,10,18.89ZM5.59,2.28A4.22,4.22,0,0,0,2.45,3.64,5.09,5.09,0,0,0,1.18,7.11a6.28,6.28,0,0,0,1.71,4.13,42.28,42.28,0,0,0,4.82,4.51h0c.69.58,1.47,1.25,2.28,2l2.29-2a41.64,41.64,0,0,0,4.83-4.51,6.28,6.28,0,0,0,1.71-4.13,5.05,5.05,0,0,0-1.28-3.47,4.2,4.2,0,0,0-3.14-1.36A3.87,3.87,0,0,0,12,3.12a5.56,5.56,0,0,0-1.35,1.56A.73.73,0,0,1,10,5a.71.71,0,0,1-.63-.36A5.56,5.56,0,0,0,8,3.12,3.88,3.88,0,0,0,5.59,2.28Z"/></svg>