<svg id="Layer_1" data-name="Layer 1" xmlns="http://www.w3.org/2000/svg" viewBox="0 0 20 20 " width="20" height="20"><defs><style>.cls-1{fill:#233974;}</style></defs><title>Heart.Filled</title><path class="cls-1" d="M18.41,2.85a5.36,5.36,0,0,0-4-1.74,5.05,5.05,0,0,0-3.15,1.08A6.72,6.72,0,0,0,10,3.52,6.2,6.2,0,0,0,8.72,2.19,5,5,0,0,0,5.58,1.11a5.36,5.36,0,0,0-4,1.74A6.24,6.24,0,0,0,0,7.11,7.47,7.47,0,0,0,2,12a42,42,0,0,0,5,4.65l2.28,2a1.18,1.18,0,0,0,1.55,0l2.27-2A41.41,41.41,0,0,0,18,12a7.47,7.47,0,0,0,2-4.88A6.24,6.24,0,0,0,18.41,2.85Z"/></svg>
