<svg xmlns="http://www.w3.org/2000/svg" viewBox="0 0 187.09 73.1"><defs><style>.cls-1{fill:#003082;fill-rule:evenodd;}</style></defs><title>nslogo</title><g id="Layer_2" data-name="Layer 2"><g id="Layer_1-2" data-name="Layer 1"><path class="cls-1" d="M94.16,6.2A20,20,0,0,0,79.71,0H36.76L0,36.34,36.76,73.1H57.41L28.09,43.77H67.32a6.21,6.21,0,0,1,4.54,1.66L92.92,66.9a20.05,20.05,0,0,0,14.46,6.2h43.36l36.35-36.76L150.74,0H129.68L159,29.32H119.77a7.36,7.36,0,0,1-4.13-1.65L94.16,6.2ZM79.71,14.45a5.74,5.74,0,0,1,4.13,2.07L104.9,37.58a19.63,19.63,0,0,0,14.87,6.19H159L144.55,58.23H107.79a5.62,5.62,0,0,1-4.54-1.65L82.18,35.52a19.56,19.56,0,0,0-14.86-6.2H28.09L42.54,14.45Z"/></g></g></svg>