<?xml version="1.0" encoding="utf-8"?>
<!-- Generator: Adobe Illustrator 22.1.0, SVG Export Plug-In . SVG Version: 6.00 Build 0)  -->
<svg version="1.1" id="Layer_1" xmlns="http://www.w3.org/2000/svg" xmlns:xlink="http://www.w3.org/1999/xlink" x="0px" y="0px"
	 viewBox="0 0 20 20" style="enable-background:new 0 0 20 20;" xml:space="preserve">
<style type="text/css">
	.st0{fill:#233974;stroke:#223A72;stroke-width:0.5;stroke-miterlimit:10;}
</style>
<title>Profile</title>
<path class="st0" d="M9.9,10.8h0.1c1.1,0,2.2-0.4,2.9-1.3c1.6-1.8,1.3-4.9,1.3-5.2c0.1-1.5-0.7-3-2-3.8C11.6,0.2,10.8,0,10,0l0,0
	C9.2,0,8.4,0.2,7.7,0.6c-1.3,0.8-2.1,2.2-2,3.8c0,0.3-0.3,3.4,1.3,5.2C7.8,10.3,8.8,10.8,9.9,10.8z M6.8,4.4L6.8,4.4
	C7,1.4,9.1,1.1,10,1.1l0,0c1.1,0,3,0.5,3.1,3.3l0,0c0,0,0.3,2.8-1,4.3c-0.5,0.6-1.3,1-2.1,0.9l0,0c-0.8,0-1.6-0.3-2.1-0.9
	C6.5,7.3,6.8,4.5,6.8,4.4z"/>
<path class="st0" d="M18.5,15.9v-0.1c0-0.8-0.1-2.7-1.9-3.4l0,0c-1.2-0.3-2.4-0.9-3.4-1.6c-0.3-0.2-0.6-0.1-0.8,0.1
	s-0.1,0.6,0.1,0.8c1.2,0.8,2.4,1.4,3.8,1.7c1,0.3,1.1,1.4,1.1,2.3v0.1c0,0.4,0,0.9-0.1,1.3c-2.3,1.2-4.8,1.7-7.3,1.7
	c-2.5,0-5-0.5-7.3-1.7c-0.1-0.4-0.1-0.9-0.1-1.3v-0.1c0-0.9,0.1-2,1.1-2.3c1.3-0.4,2.6-1,3.7-1.7c0.2-0.2,0.3-0.5,0.1-0.8
	c-0.2-0.2-0.5-0.3-0.7-0.1c-1.1,0.7-2.2,1.2-3.4,1.6l0,0C1.6,13,1.5,15,1.5,15.8v0.1l0,0c0,0.6,0,1.3,0.2,1.9c0,0.1,0.1,0.2,0.2,0.3
	c2.5,1.4,5.3,2.1,8.1,2c2.8,0.1,5.6-0.6,8.1-2c0.1-0.1,0.2-0.2,0.2-0.3C18.5,17.1,18.5,16.5,18.5,15.9z"/>
</svg>
