<?xml version="1.0" encoding="utf-8"?>
<!-- Generator: Adobe Illustrator 22.1.0, SVG Export Plug-In . SVG Version: 6.00 Build 0)  -->
<svg version="1.1" id="Layer_1" xmlns="http://www.w3.org/2000/svg" xmlns:xlink="http://www.w3.org/1999/xlink" x="0px" y="0px"
	 viewBox="0 0 20 20" style="enable-background:new 0 0 20 20;" xml:space="preserve">
<style type="text/css">
	.st0{fill:#233974;stroke:#223A72;stroke-width:0.5;stroke-miterlimit:10;}
	.st1{fill:#233974;stroke:#233974;stroke-width:0.75;stroke-miterlimit:10;}
</style>
<title>Search</title>
<rect x="15.2" y="10.6" transform="matrix(0.7071 -0.7071 0.7071 0.7071 -6.5529 15.82)" class="st0" width="1.3" height="10.5"/>
<path class="st1" d="M7.2,14.5c-4,0-7.2-3.2-7.2-7.2S3.2,0,7.2,0s7.2,3.2,7.2,7.2S11.2,14.5,7.2,14.5L7.2,14.5z M7.2,0.7
	c-3.6,0-6.5,2.9-6.5,6.5s2.9,6.5,6.5,6.5s6.5-2.9,6.5-6.5S10.8,0.7,7.2,0.7C7.2,0.7,7.2,0.7,7.2,0.7z"/>
</svg>
